<svg xmlns="http://www.w3.org/2000/svg" version="1.1" xmlns:xlink="http://www.w3.org/1999/xlink" xmlns:svgjs="http://svgjs.com/svgjs" width="595.28" height="841.89"><svg version="1.1" id="SvgjsSvg1000" xmlns="http://www.w3.org/2000/svg" xmlns:xlink="http://www.w3.org/1999/xlink" x="0px" y="0px" viewBox="0 0 595.28 841.89" style="enable-background:new 0 0 595.28 841.89;" xml:space="preserve">
<style type="text/css">
	.st0{fill:#66B32E;}
	.st1{fill:#1E1E1C;}
	.st2{font-family:'BDGeminis';}
	.st3{font-size:93.2699px;}
	.st4{font-size:123.0606px;}
	.st5{fill:#152A1B;stroke:#66B32E;stroke-width:1.7846;stroke-miterlimit:10;}
	.st6{fill:#FFFFFF;stroke:#66B32E;stroke-width:1.7846;stroke-miterlimit:10;}
</style>
<g>
	<g>
		<rect x="0.46" y="0.9" class="st0" width="594.99" height="840.86"></rect>
	</g>
	<g>
		<text transform="matrix(0 -1.3194 1 0 74.4868 730.9502)" class="st1 st2 st3" svgjs:data="{&quot;leading&quot;:&quot;1.3&quot;}">0123456789</text>
		<text transform="matrix(0.9614 0 0 1 0.1572 100.9053)" class="st1 st2 st4" svgjs:data="{&quot;leading&quot;:&quot;1.3&quot;}">0123456789</text>
		<text transform="matrix(0 -1.3194 1 0 246.1421 730.9424)" class="st1 st2 st3" svgjs:data="{&quot;leading&quot;:&quot;1.3&quot;}">0123456789</text>
		<text transform="matrix(0 -1.3194 1 0 415.9053 730.9541)" class="st1 st2 st3" svgjs:data="{&quot;leading&quot;:&quot;1.3&quot;}">0123456789</text>
		<text transform="matrix(0 -1.3194 1 0 596.415 730.9424)" class="st1 st2 st3" svgjs:data="{&quot;leading&quot;:&quot;1.3&quot;}">0123456789</text>
		<text transform="matrix(0 -1.3194 1 0 158.8296 730.9424)" class="st1 st2 st3" svgjs:data="{&quot;leading&quot;:&quot;1.3&quot;}">9876543210</text>
		<text transform="matrix(0.9475 0 0 1 0.1572 840.5742)" class="st1 st2 st4" svgjs:data="{&quot;leading&quot;:&quot;1.3&quot;}">9876543210</text>
		<text transform="matrix(0 -1.3194 1 0 330.4854 730.9424)" class="st1 st2 st3" svgjs:data="{&quot;leading&quot;:&quot;1.3&quot;}">9876543210</text>
		<text transform="matrix(0 -1.3194 1 0 507.1768 730.9541)" class="st1 st2 st3" svgjs:data="{&quot;leading&quot;:&quot;1.3&quot;}">9876543210</text>
	</g>
</g>
<g>
	<g>
		<path class="st5" d="M389.92,314.61H174.05c-8.41,0-16.39-2.13-23.11-6v64.29l69.34,0.4c25.5,0,46.37,19.07,46.37,43.35v72.83
			h58.56c14.29,0,26.06,11.2,26.06,24.81v137.25h38.66c25.5,0,45.53-19.87,45.53-44.02V358.63
			C435.45,334.36,415.42,314.61,389.92,314.61z"></path>
		<path class="st5" d="M521.61,210.44v499.92c0,24.28-20.87,44.02-46.37,44.02h-324.3V372.9l69.34,0.4
			c25.5,0,46.37,19.07,46.37,43.35v72.83h-53.93v206.21H325.2c14.29,0,26.06-11.2,26.06-24.81v-19.34h38.66
			c25.5,0,45.53-19.87,45.53-44.02V358.63c0-24.28-20.03-44.02-45.53-44.02H174.05c-8.41,0-16.39-2.13-23.11-6V166.29h324.3
			C500.73,166.29,521.61,186.17,521.61,210.44z"></path>
	</g>
	<g>
		<path class="st6" d="M97.7,592.85c-16.95,0-30.82,13.2-30.82,29.34c0,16.14,13.87,29.34,30.82,29.34h53.23v-58.69H97.7z
			 M389.92,314.61H174.05c-8.41,0-16.39-2.13-23.11-6c-13.87-7.6-23.11-21.88-23.11-38.01V168.56c0-24.28,20.73-44.15,46.23-44.15
			h172.73c16.95,0,30.82-13.2,30.82-29.34s-13.87-28.54-30.82-28.54H113.11c-25.36,0-46.23,19.07-46.23,43.22v219.55
			c0,24.28,20.87,43.35,46.23,43.35l37.82,0.27l69.34,0.4c25.5,0,46.37,19.07,46.37,43.35V549.5c0,24.28-20.87,43.35-46.37,43.35
			h-7.57v58.69h177.21c25.5,0,45.53-19.87,45.53-44.02V358.63C435.45,334.36,415.42,314.61,389.92,314.61z"></path>
	</g>
</g>
</svg><style>@media (prefers-color-scheme: light) { :root { filter: none; } }
</style></svg>